<svg width="16" height="16" viewBox="0 0 16 16" fill="none" xmlns="http://www.w3.org/2000/svg">
<path d="M6.49955 4.93055C6.61952 4.93055 6.73949 4.8848 6.83099 4.79324L7.08098 4.54324C7.26405 4.36018 7.26405 4.0634 7.08098 3.88034C6.89795 3.69728 6.60114 3.69728 6.41808 3.88034L6.16808 4.13034C5.87193 4.42652 6.08574 4.93055 6.49955 4.93055Z" fill="#858585"/>
<path d="M8.49955 5.18055C8.61952 5.18055 8.73949 5.1348 8.83099 5.04324L9.08099 4.79324C9.26406 4.61018 9.26406 4.3134 9.08099 4.13034C8.89796 3.94728 8.60115 3.94728 8.41808 4.13034L8.16808 4.38034C7.87193 4.67652 8.08574 5.18055 8.49955 5.18055Z" fill="#858585"/>
<path d="M6.49955 6.93055C6.61952 6.93055 6.73949 6.8848 6.83099 6.79324L7.08098 6.54324C7.26405 6.36018 7.26405 6.0634 7.08098 5.88034C6.89795 5.69728 6.60114 5.69728 6.41808 5.88034L6.16808 6.13034C5.87193 6.42652 6.08574 6.93055 6.49955 6.93055Z" fill="#858585"/>
<path d="M0.46875 8.93062H15.5312C15.7901 8.93062 16 8.72075 16 8.46187C16 8.203 15.7901 7.99312 15.5312 7.99312H14.9688V2.13206C14.9688 0.954561 14.0161 6.10352e-05 12.837 6.10352e-05C12.3446 6.10352e-05 11.8642 0.172217 11.4844 0.48378L11.19 0.725311C10.5313 0.337592 9.66753 0.426155 9.1025 0.991186L8.39541 1.69828C8.21234 1.88134 8.21234 2.17812 8.39541 2.36119L10.1632 4.12897C10.3462 4.31203 10.643 4.31206 10.8261 4.12897C11.5767 3.37834 11.5301 3.42187 11.5332 3.42187C12.078 2.87706 12.1799 2.05444 11.8388 1.40572L12.0791 1.20859C12.2907 1.03497 12.5581 0.938717 12.8318 0.937592C13.4723 0.931842 14.0312 1.45256 14.0312 2.13206V7.99316C13.551 7.99316 0.944469 7.99316 0.46875 7.99316C0.209875 7.99316 0 8.20303 0 8.46191C0 8.72078 0.209875 8.93062 0.46875 8.93062Z" fill="#858585"/>
<path d="M1.2793 9.86816L1.47902 10.9666C1.77623 12.6013 2.98927 13.8709 4.5313 14.2859V14.9619C4.5313 15.2208 4.74117 15.4307 5.00005 15.4307C5.25892 15.4307 5.4688 15.2208 5.4688 14.9619V14.4274C5.61511 14.433 10.4018 14.4323 10.5313 14.4274V14.9619C10.5313 15.2208 10.7412 15.4307 11 15.4307C11.2589 15.4307 11.4688 15.2208 11.4688 14.9619V14.2859C13.0108 13.8709 14.2239 12.6013 14.5211 10.9666L14.7208 9.8682H1.2793V9.86816Z" fill="#858585"/>
</svg>
